<svg xmlns="http://www.w3.org/2000/svg" viewBox="0 0 28.52 27.03"><g id="Livello_2" data-name="Livello 2"><g id="Layer_1" data-name="Layer 1"><path d="M18.5,15.25c-.37-.18-.76-.33-1.14-.47a8.06,8.06,0,1,0-8.9,0A12.9,12.9,0,0,0,0,26.88H2.15A10.76,10.76,0,0,1,12.9,16.13a10.64,10.64,0,0,1,4.66,1.06ZM7,8.06A5.92,5.92,0,1,1,12.9,14,5.92,5.92,0,0,1,7,8.06Z" fill="#232231"/><path d="M22.87,15.74a5.65,5.65,0,1,0,5.65,5.64A5.65,5.65,0,0,0,22.87,15.74Zm0,9.68a4,4,0,1,1,4-4A4,4,0,0,1,22.87,25.42Z" fill="#232231"/><rect x="20.14" y="20.58" width="5.47" height="1.61" fill="#232231"/></g></g></svg>