<?xml version="1.0" encoding="utf-8"?>
<!-- Generator: Adobe Illustrator 24.1.1, SVG Export Plug-In . SVG Version: 6.00 Build 0)  -->
<svg version="1.1" id="Layer_1" xmlns="http://www.w3.org/2000/svg" xmlns:xlink="http://www.w3.org/1999/xlink" x="0px" y="0px"
	 viewBox="0 0 84.38 78.82" style="enable-background:new 0 0 84.38 78.82;" xml:space="preserve">
<style type="text/css">
	.st0{fill:#232231;}
</style>
<g>
	<path class="st0" d="M53.15,43.57c-1.02-0.49-2.06-0.9-3.11-1.29c5.95-3.96,9.88-10.72,9.88-18.38c0-12.18-9.9-22.08-22.08-22.08
		c-12.18,0-22.08,9.9-22.08,22.08c0,7.68,3.94,14.44,9.9,18.4C12.17,47.27,2.51,60.21,2.51,75.41H8.4
		c0-16.23,13.21-29.44,29.44-29.44c4.47,0,8.77,0.98,12.76,2.9L53.15,43.57z M21.65,23.89c0-8.93,7.26-16.19,16.19-16.19
		c8.93,0,16.19,7.26,16.19,16.19s-7.26,16.19-16.19,16.19C28.91,40.08,21.65,32.82,21.65,23.89z"/>
	<g>
		<path class="st0" d="M67.06,76.84H63.7c-0.37,0-1.62-0.13-2.43-1.75c-0.23-0.46-0.81-1.78-1.2-2.69l-2.6,1.06
			c-0.89,0.41-2.23,0.54-3.18-0.41c-0.32-0.32-2.37-2.29-2.37-2.29c-0.08-0.07-0.15-0.16-0.21-0.24c-0.45-0.6-0.75-1.67-0.24-2.87
			c0.15-0.36,0.7-1.69,1.07-2.6l-2.57-0.97c-0.89-0.33-1.93-1.21-1.93-2.59v-3.04c-0.05-0.9,0.43-1.97,1.66-2.59
			c0.47-0.24,1.85-0.81,2.82-1.21l-1.03-2.36c-0.16-0.32-0.76-1.75,0.15-2.96c0.08-0.11,0.33-0.44,2.4-2.43
			c0.66-0.7,1.86-1.18,3.19-0.74c0.52,0.17,1.9,0.73,2.84,1.12l0.8-1.96c0.47-1.54,1.47-2.46,2.69-2.46l3.44,0
			c0.68,0.04,1.88,0.26,2.65,2.11c0.24,0.57,0.67,1.58,0.98,2.31l2.45-1.03c0.96-0.51,2.38-0.57,3.41,0.47
			c0.44,0.43,1.81,1.74,2.02,1.94c0.75,0.68,1.24,1.98,0.67,3.42c-0.22,0.56-0.69,1.67-1.03,2.48l2.37,0.9
			c1.37,0.5,2.17,1.44,2.17,2.59l0,3.28c0,0.64-0.27,1.95-2.25,2.8c-0.62,0.27-1.53,0.63-2.23,0.91l1.02,2.33
			c0.31,0.64,0.69,1.81,0.01,2.83c-0.12,0.18-0.28,0.42-2.75,2.8c-0.49,0.49-1.49,0.92-2.74,0.57c-0.47-0.13-1.96-0.73-3.06-1.17
			L69.65,75c-0.04,0.09-0.08,0.18-0.13,0.27C69.31,75.64,68.51,76.84,67.06,76.84z M64.63,72.84h1.56l1.08-2.8
			c0.2-0.52,0.62-0.94,1.14-1.14l1.44-0.56c0.48-0.19,1.01-0.18,1.48,0.01c1.04,0.43,2.24,0.91,2.94,1.18
			c0.38-0.37,0.74-0.73,1.04-1.02l-1.22-2.77c-0.2-0.46-0.22-0.99-0.05-1.47l0.48-1.36c0.19-0.55,0.62-0.99,1.17-1.2
			c0.01,0,1.83-0.71,2.96-1.18v-1.48l-2.95-1.12c-0.5-0.19-0.91-0.58-1.12-1.07l-0.56-1.28c-0.22-0.5-0.22-1.08-0.01-1.58
			c0,0,0.77-1.8,1.22-2.9c-0.3-0.29-0.69-0.66-1.02-0.98l-2.94,1.23c-0.49,0.21-1.04,0.21-1.53,0l-1.36-0.56
			c-0.48-0.2-0.87-0.58-1.08-1.06c0,0-0.77-1.79-1.22-2.87h-1.54l-1.15,2.83c-0.2,0.5-0.6,0.89-1.09,1.1l-1.36,0.56
			c-0.49,0.2-1.04,0.2-1.53,0c-0.85-0.35-2.2-0.91-2.97-1.21c-0.38,0.37-0.77,0.75-1.08,1.06l1.22,2.77
			c0.22,0.5,0.23,1.06,0.02,1.57l-0.56,1.36c-0.2,0.5-0.6,0.89-1.1,1.09c-0.9,0.36-2.16,0.89-2.91,1.21v1.39l2.94,1.11
			c0.55,0.21,0.98,0.65,1.18,1.21l0.48,1.36c0.16,0.46,0.15,0.96-0.03,1.42c0,0-0.74,1.83-1.18,2.9c0.32,0.31,0.71,0.68,1.03,0.99
			l2.98-1.22c0.49-0.2,1.03-0.2,1.52,0l1.36,0.56c0.48,0.2,0.87,0.58,1.08,1.06C63.74,70.8,64.3,72.11,64.63,72.84z M73.69,70.11
			c-0.02,0.01-0.03,0.03-0.04,0.04C73.66,70.14,73.67,70.12,73.69,70.11z M78.68,61.66C78.68,61.66,78.68,61.66,78.68,61.66
			C78.68,61.66,78.68,61.66,78.68,61.66z M78.68,61.66C78.68,61.66,78.68,61.66,78.68,61.66C78.68,61.66,78.68,61.66,78.68,61.66z
			 M78.66,61.58c0,0.03,0.01,0.05,0.01,0.08C78.67,61.63,78.67,61.6,78.66,61.58z M52,57.99C52,57.99,52,57.99,52,57.99
			C52,57.99,52,57.99,52,57.99z M51.99,57.99C51.99,57.99,51.99,57.99,51.99,57.99C51.99,57.99,51.99,57.99,51.99,57.99z
			 M51.99,57.98C51.99,57.98,51.99,57.98,51.99,57.98C51.99,57.98,51.99,57.98,51.99,57.98z M75.85,51.67
			C75.85,51.67,75.85,51.67,75.85,51.67C75.85,51.67,75.85,51.67,75.85,51.67z M67.34,46.83C67.34,46.83,67.34,46.83,67.34,46.83
			C67.34,46.83,67.34,46.83,67.34,46.83z M67.37,46.83c-0.01,0-0.02,0-0.03,0.01C67.35,46.83,67.36,46.83,67.37,46.83z M65.38,67.01
			c-3.97,0-7.2-3.23-7.2-7.2s3.23-7.2,7.2-7.2s7.2,3.23,7.2,7.2S69.35,67.01,65.38,67.01z M65.38,56.62c-1.76,0-3.2,1.43-3.2,3.2
			c0,1.76,1.43,3.2,3.2,3.2c1.76,0,3.2-1.43,3.2-3.2C68.58,58.05,67.14,56.62,65.38,56.62z"/>
	</g>
</g>
</svg>
