<svg id="Layer_1" viewBox="0 0 80.18 75.02"><path d="M53.15,43.57c-1-.49-2.06-.9-3.11-1.29a22.07,22.07,0,1,0-24.38,0A35.33,35.33,0,0,0,2.51,75.41H8.4A29.46,29.46,0,0,1,50.6,48.87ZM21.65,23.89A16.19,16.19,0,1,1,37.84,40.08,16.2,16.2,0,0,1,21.65,23.89Z" transform="translate(-2.51 -1.82)"/><path d="M67.06,76.84H63.7a2.77,2.77,0,0,1-2.43-1.75c-.23-.46-.81-1.78-1.2-2.69l-2.6,1.06a2.8,2.8,0,0,1-3.18-.41c-.32-.32-2.37-2.29-2.37-2.29a1.57,1.57,0,0,1-.21-.24,2.89,2.89,0,0,1-.24-2.87c.15-.36.7-1.69,1.07-2.6l-2.57-1A2.83,2.83,0,0,1,48,61.49v-3a2.77,2.77,0,0,1,1.66-2.59c.47-.24,1.85-.81,2.82-1.21l-1-2.36a2.91,2.91,0,0,1,.15-3A26.25,26.25,0,0,1,54,46.9a3,3,0,0,1,3.19-.74c.52.17,1.9.73,2.84,1.12l.8-2c.47-1.54,1.47-2.46,2.69-2.46H67A2.9,2.9,0,0,1,69.65,45l1,2.31,2.45-1a2.87,2.87,0,0,1,3.41.47l2,1.94a3.05,3.05,0,0,1,.67,3.42c-.22.56-.69,1.67-1,2.48l2.37.9a2.85,2.85,0,0,1,2.17,2.59v3.28c0,.64-.27,2-2.25,2.8-.62.27-1.53.63-2.23.91l1,2.33a2.86,2.86,0,0,1,0,2.83A23.71,23.71,0,0,1,76.49,73a2.8,2.8,0,0,1-2.74.57c-.47-.13-2-.73-3.06-1.17l-1,2.6c0,.09-.08.18-.13.27A3,3,0,0,1,67.06,76.84Zm-2.43-4h1.56L67.27,70a2,2,0,0,1,1.14-1.14l1.44-.56a2,2,0,0,1,1.48,0c1,.43,2.24.91,2.94,1.18l1-1-1.22-2.77a2,2,0,0,1,0-1.47l.48-1.36a2,2,0,0,1,1.17-1.2s1.83-.71,3-1.18V59.05l-3-1.12a2,2,0,0,1-1.12-1.07L74,55.58A2,2,0,0,1,74,54s.77-1.8,1.22-2.9l-1-1-2.94,1.23a1.94,1.94,0,0,1-1.53,0l-1.36-.56a2,2,0,0,1-1.08-1.06s-.77-1.79-1.22-2.87H64.54l-1.15,2.83a2,2,0,0,1-1.09,1.1l-1.36.56a2,2,0,0,1-1.53,0c-.85-.35-2.2-.91-3-1.21L55.36,51.2,56.58,54a2,2,0,0,1,0,1.57L56,56.9A2,2,0,0,1,54.94,58c-.9.36-2.16.89-2.91,1.21v1.39L55,61.7a2,2,0,0,1,1.18,1.21l.48,1.36a2,2,0,0,1,0,1.42s-.74,1.83-1.18,2.9l1,1,3-1.22a2,2,0,0,1,1.52,0l1.36.56A2,2,0,0,1,63.39,70C63.74,70.8,64.3,72.11,64.63,72.84Zm9.06-2.73,0,0Zm5-8.45Zm0,0Zm0-.08s0,.05,0,.08A.19.19,0,0,0,78.66,61.58ZM52,58Zm0,0Zm0,0Zm23.86-6.31Zm-8.51-4.84Zm0,0h0ZM65.38,67a7.2,7.2,0,1,1,7.2-7.2A7.21,7.21,0,0,1,65.38,67Zm0-10.39a3.2,3.2,0,1,0,3.2,3.2A3.2,3.2,0,0,0,65.38,56.62Z" transform="translate(-2.51 -1.82)"/></svg>