<svg id="OBJECTS" xmlns="http://www.w3.org/2000/svg" viewBox="0 0 111.49 93.11"><defs><style>.cls-1{fill:#232231;}</style></defs><path class="cls-1" d="M28.63,62.18V66.3a3.31,3.31,0,0,0,3.31,3.31h28.9a3.31,3.31,0,0,0,3.31-3.31V62.18A17.75,17.75,0,0,0,54,46.16a12.55,12.55,0,1,0-15.27,0A17.74,17.74,0,0,0,28.63,62.18Z"/><path class="cls-1" d="M108.85,43.67,98.7,34.51a4,4,0,0,0-6.68,3v5.16H68a4,4,0,0,0,0,8H92v5.15a4,4,0,0,0,6.68,3l10.15-9.15a4,4,0,0,0,0-5.94Z"/><path class="cls-1" d="M84.82,61.54a4,4,0,0,0-5.37,1.76,37,37,0,1,1,0-33.34,4,4,0,1,0,7.13-3.61,45,45,0,1,0,0,40.57A4,4,0,0,0,84.82,61.54Z"/></svg>