<svg id="Livello_1" data-name="Livello 1" xmlns="http://www.w3.org/2000/svg" viewBox="0 0 841.89 595.28"><defs><style>.cls-1{fill:#e6007e;}.cls-2{fill:#f18700;}.cls-3{fill:#c8d400;}.cls-4{fill:#702283;}.cls-5{fill:#0075ad;}.cls-6{fill:#fd0;}.cls-7{fill:#009fe3;}.cls-8{fill:#e30613;}.cls-9{fill:#dedc00;}.cls-10{fill:#1d1d1b;fill-rule:evenodd;}.cls-11{fill:#3c3c3b;}.cls-12{fill:#706f6f;}.cls-13{fill:#767675;}.cls-14{fill:#7d7c7c;}.cls-15{fill:#838382;}.cls-16{fill:#898988;}.cls-17{fill:#8f8f8e;}.cls-18{fill:#959594;}.cls-19{fill:#9b9a9a;}.cls-20{fill:#a0a0a0;}.cls-21{fill:#a6a6a6;}.cls-22{fill:#acacab;}.cls-23{fill:#b2b1b1;}.cls-24{fill:#b7b7b7;}.cls-25{fill:#bdbcbc;}.cls-26{fill:#c2c2c1;}.cls-27{fill:#c7c7c7;}.cls-28{fill:#ccc;}.cls-29{fill:#d2d2d1;}.cls-30{fill:#d7d7d7;}.cls-31{fill:#dcdcdc;}.cls-32{fill:#e1e1e1;}.cls-33{fill:#e6e6e6;}.cls-34{fill:#ebebeb;}.cls-35{fill:#f0f0f0;}.cls-36{fill:#f5f5f5;}.cls-37{fill:#fafafa;}.cls-38{fill:#fff;}</style></defs><path class="cls-1" d="M716.72,184.36c10.75,1.9,18.45,8.14,17.39,14.15-1.12,6.32-10.86,9.82-22.24,7.81-11.07-1.95-18.71-8.51-17-14.72,1.7-5.9,11.38-9.08,21.82-7.24"/><path class="cls-2" d="M626.27,258.5c-6.11-3.54-9.64-8-10.28-12.84-1-4.82,1.28-9,6.1-12.52,4.5-3.21,11.24-4.82,18.3-4.82,7.38,0,14.77,1.61,20.54,4.82,6.1,3.53,10.28,7.7,11.56,12.52s-.64,9.3-5.14,12.84-11.55,5.78-19.26,5.78a44.17,44.17,0,0,1-21.82-5.78"/><path class="cls-3" d="M642.77,174.34c-4.57-3-7.2-6.11-7.56-9.36,0-3.23,2.13-5.94,6.17-7.84S651,154.43,657,155a40.83,40.83,0,0,1,16.33,5c4.6,2.66,7.54,5.81,7.91,9.07.68,3.28-1.18,6-5.24,8.24-4,1.9-9.9,2.68-16.29,2.12a42.86,42.86,0,0,1-17-5"/><path class="cls-4" d="M581.54,191.41c0-7.73,11.12-12.88,24.55-11.7,13.75,1.2,25.37,8.34,26.3,16.15.55,8.43-10.27,14.25-25,13-14.39-1.26-26-9-25.87-17.41"/><path class="cls-5" d="M595.11,140.48c0-3.87,5.56-6.44,12.27-5.86,6.88.61,12.69,4.17,13.15,8.08.28,4.22-5.13,7.13-12.49,6.48-7.19-.63-13-4.52-12.93-8.7"/><path class="cls-6" d="M654,207.54c0-3.87,5.56-6.44,12.28-5.86s12.68,4.17,13.15,8.08c.27,4.21-5.14,7.13-12.5,6.48-7.19-.63-13-4.52-12.93-8.7"/><path class="cls-7" d="M699.28,238.4c0-3.87,5.55-6.44,12.27-5.85,6.87.6,12.68,4.16,13.15,8.07.28,4.22-5.14,7.13-12.49,6.48s-13-4.52-12.93-8.7"/><path class="cls-8" d="M688.05,143.94c0-3.86,5.55-6.44,12.27-5.85,6.88.6,12.69,4.17,13.15,8.08.28,4.21-5.13,7.12-12.49,6.48-7.19-.63-13-4.52-12.93-8.71"/><path class="cls-9" d="M745.25,179c0-3.86,5.55-6.44,12.27-5.85,6.88.6,12.69,4.17,13.15,8.08.28,4.21-5.14,7.12-12.49,6.48-7.2-.63-13-4.52-12.93-8.71"/><path class="cls-10" d="M580.79,354.2h77.39a76,76,0,0,0-2.07-23.86A57.37,57.37,0,0,0,646.56,310,45.73,45.73,0,0,0,630,295.9q-10.17-5.4-23.86-5.39a56.32,56.32,0,0,0-22.4,4.35,52.45,52.45,0,0,0-17.23,12,51.38,51.38,0,0,0-11.2,17.84,62.46,62.46,0,0,0-3.94,22.4A66.76,66.76,0,0,0,555.07,370a53.08,53.08,0,0,0,11,17.84,48.42,48.42,0,0,0,17.22,11.61,62.65,62.65,0,0,0,22.82,3.94q18.25,0,31.12-8.29t19.09-27.59H630.38c-1,3.31-3.6,6.5-7.89,9.54a26.67,26.67,0,0,1-15.35,4.36q-12.45,0-19.09-6.44t-7.26-20.74m47.93-18.67H580.79a38.27,38.27,0,0,1,1.24-7.06,24.59,24.59,0,0,1,4-7.47,22.54,22.54,0,0,1,7.47-5.8,25.22,25.22,0,0,1,11.82-2.5q10.79,0,16,5.81Q626.65,324.33,628.72,335.53Zm-82.16,65.14V293.41H517.1v56.23q0,16.38-5.4,23.65-5.38,7.05-17.43,7-10.57,0-14.73-6.43-4.14-6.65-4.14-19.92V293.41H445.93v66a92.93,92.93,0,0,0,1.67,18.25,36.32,36.32,0,0,0,6.22,13.9,28.49,28.49,0,0,0,11.82,8.72q7.68,3.11,19.51,3.1a42.9,42.9,0,0,0,18.25-4.14,33.17,33.17,0,0,0,14.53-13.49h.62v14.94ZM436.18,426.26V293.41h-28V307.1c-3.73-5.94-8.36-10.16-14.31-12.65a44.76,44.76,0,0,0-18.67-3.94q-12.26,0-21.37,4.77a44.6,44.6,0,0,0-14.94,12.86A53.46,53.46,0,0,0,330,326.4a78.72,78.72,0,0,0-2.91,21.37q0,15.56,4.36,26.35a51.92,51.92,0,0,0,11,17.21,41.29,41.29,0,0,0,14.53,9.34,49,49,0,0,0,15.56,2.69,51.44,51.44,0,0,0,19.29-3.73,29,29,0,0,0,14.53-12.44l.41,39.07Zm-79.67-79.12a62.31,62.31,0,0,1,1.25-12.65,34.29,34.29,0,0,1,4.56-11,23.37,23.37,0,0,1,8.09-7.88,23.9,23.9,0,0,1,12.24-2.91,20.76,20.76,0,0,1,11.62,3.12,23.23,23.23,0,0,1,7.89,8.09,36.26,36.26,0,0,1,4.15,11.2,55.1,55.1,0,0,1,1.45,12.45,56.9,56.9,0,0,1-1.45,12.86A30.9,30.9,0,0,1,402,371.21a22.89,22.89,0,0,1-7.88,7.47,24.24,24.24,0,0,1-12,2.7,23.9,23.9,0,0,1-12.24-2.91,24.48,24.48,0,0,1-7.88-7.68,36,36,0,0,1-4.15-11A64.4,64.4,0,0,1,356.51,347.14ZM221,293.41V400.67H250.5V344.45q0-16.4,5.39-23.45,5.39-7.26,17.43-7.26,10.57,0,14.73,6.64,4.14,6.44,4.15,19.71v60.58h29.46v-66a80.08,80.08,0,0,0-1.87-18.05,32.63,32.63,0,0,0-6-13.9,27.51,27.51,0,0,0-12-8.93q-7.47-3.31-19.29-3.31a41.23,41.23,0,0,0-18.26,4.35,33.17,33.17,0,0,0-14.53,13.49H249V293.41Zm-10.78,0H180.78V400.67h29.47Zm-63.91,37.76h28.84a39.5,39.5,0,0,0-5-17.84,38.45,38.45,0,0,0-11.41-12.66A46.68,46.68,0,0,0,143,293a66.56,66.56,0,0,0-18.27-2.48,58.57,58.57,0,0,0-23.23,4.35A48.38,48.38,0,0,0,84.31,307.1a52,52,0,0,0-10.79,18.47,72.44,72.44,0,0,0-3.53,23,61,61,0,0,0,3.94,22.19,51.83,51.83,0,0,0,11,17.23,50.29,50.29,0,0,0,17,11.4,60.87,60.87,0,0,0,22.2,3.94q21.37,0,35.07-11.19t16.59-32.58H147.38q-1.45,10-7.26,16-5.61,5.81-16.18,5.81a20.84,20.84,0,0,1-11.62-3.11,24.72,24.72,0,0,1-7.68-7.89,39.85,39.85,0,0,1-3.94-11,58.38,58.38,0,0,1-1.24-11.83,59.2,59.2,0,0,1,1.24-12,36.06,36.06,0,0,1,4.15-11.21,25.17,25.17,0,0,1,7.88-8.29,20.16,20.16,0,0,1,11.83-3.33Q143.45,312.7,146.34,331.17Z"/><path class="cls-11" d="M447.11,218.12a53.44,53.44,0,0,1,53.58-55.44c30.57-.1,56.14,24.54,57.12,55a53.44,53.44,0,0,1-53.58,55.43c-30.57.11-56.15-24.54-57.12-55"/><path class="cls-12" d="M542.48,193.76l-40.34-18-24.67,37.7L491.2,224.4c3.52-3.6,7.83-4.47,12.25-2.5a10.52,10.52,0,0,1,5.4,14,10.4,10.4,0,0,1-14.15,5.34c-3.6-1.6-5.39-4-6.14-8.16l-18.92-8.43c-3.53,13.13,3.78,27,17.41,33.09,16.49,7.35,33.74,1.41,40.58-14,6.2-13.92.53-29.55-12.87-35.52A27.13,27.13,0,0,0,503.92,206l5.05-7.71L535.28,210l7.2-16.2"/><path class="cls-13" d="M542.35,193.59l-40.34-18-24.66,37.7,13.72,10.91c3.52-3.6,7.83-4.47,12.25-2.5a10.6,10.6,0,1,1-8.75,19.32c-3.6-1.61-5.39-4-6.13-8.16l-18.93-8.43c-3.53,13.12,3.78,27,17.41,33.09,16.49,7.34,33.74,1.4,40.58-14,6.2-13.92.53-29.55-12.86-35.51a26.88,26.88,0,0,0-10.85-2.28l5-7.72,26.31,11.72,7.2-16.19"/><path class="cls-14" d="M542.23,193.41l-40.34-18-24.67,37.7,13.72,10.91c3.52-3.6,7.83-4.47,12.26-2.5a10.51,10.51,0,0,1,5.4,14,10.4,10.4,0,0,1-14.15,5.34c-3.61-1.6-5.39-4-6.14-8.16l-18.92-8.43c-3.53,13.12,3.78,27,17.41,33.09,16.48,7.35,33.73,1.4,40.58-14,6.19-13.92.52-29.55-12.87-35.52a26.84,26.84,0,0,0-10.85-2.28l5-7.71L535,209.61l7.21-16.2"/><path class="cls-15" d="M542.1,193.24l-40.34-18L477.09,213l13.72,10.91c3.52-3.6,7.84-4.47,12.26-2.5a10.52,10.52,0,0,1,5.4,14,10.41,10.41,0,0,1-14.15,5.34c-3.61-1.61-5.39-4-6.14-8.17l-18.92-8.43c-3.53,13.13,3.78,27,17.41,33.1,16.48,7.34,33.74,1.4,40.58-14,6.19-13.92.52-29.55-12.87-35.51a26.83,26.83,0,0,0-10.84-2.28l5-7.72,26.31,11.72,7.21-16.19"/><path class="cls-16" d="M542,193.06l-40.34-18L477,212.79l13.72,10.91c3.52-3.6,7.83-4.47,12.25-2.5a10.51,10.51,0,0,1,5.4,14,10.4,10.4,0,0,1-14.15,5.34c-3.6-1.61-5.39-4-6.13-8.16l-18.93-8.43c-3.53,13.12,3.78,27,17.41,33.09,16.49,7.34,33.74,1.4,40.58-14,6.2-13.92.53-29.55-12.86-35.51a26.88,26.88,0,0,0-10.85-2.28l5-7.72,26.31,11.72,7.2-16.19"/><path class="cls-17" d="M541.84,192.88l-40.34-18-24.66,37.7,13.72,10.91c3.52-3.6,7.83-4.47,12.25-2.5a10.51,10.51,0,0,1,5.4,14,10.39,10.39,0,0,1-14.15,5.34c-3.6-1.6-5.39-4-6.14-8.16L469,223.75c-3.53,13.13,3.79,27,17.41,33.09,16.49,7.35,33.74,1.4,40.58-14,6.2-13.92.53-29.55-12.86-35.52a27.22,27.22,0,0,0-10.85-2.28l5.05-7.71,26.31,11.72,7.2-16.2"/><path class="cls-18" d="M541.72,192.71l-40.34-18-24.67,37.7,13.72,10.9c3.52-3.59,7.83-4.47,12.25-2.49a10.6,10.6,0,1,1-8.75,19.32c-3.6-1.61-5.38-4-6.13-8.16l-18.92-8.44c-3.53,13.13,3.78,27,17.41,33.1,16.48,7.34,33.73,1.4,40.57-14,6.2-13.92.53-29.55-12.86-35.51a26.84,26.84,0,0,0-10.85-2.28l5.05-7.72,26.31,11.72,7.21-16.19"/><path class="cls-19" d="M541.59,192.53l-40.34-18-24.67,37.7,13.72,10.91c3.52-3.6,7.84-4.47,12.26-2.5a10.51,10.51,0,0,1,5.4,14A10.4,10.4,0,0,1,493.81,240c-3.61-1.6-5.39-4-6.14-8.16l-18.92-8.43c-3.53,13.12,3.78,27,17.41,33.09,16.48,7.34,33.74,1.4,40.58-14,6.19-13.92.52-29.55-12.87-35.52A26.83,26.83,0,0,0,503,204.72l5-7.72,26.31,11.73,7.21-16.2"/><path class="cls-20" d="M541.46,192.36l-40.34-18-24.67,37.69L490.18,223c3.52-3.6,7.83-4.47,12.25-2.5a10.52,10.52,0,0,1,5.4,14,10.4,10.4,0,0,1-14.15,5.33c-3.6-1.6-5.39-4-6.14-8.16l-18.92-8.43c-3.53,13.13,3.78,27,17.41,33.1,16.49,7.34,33.74,1.4,40.58-14,6.19-13.92.53-29.55-12.87-35.51a27,27,0,0,0-10.84-2.29l5-7.71,26.32,11.72,7.2-16.19"/><path class="cls-21" d="M541.34,192.18l-40.34-18-24.67,37.7,13.72,10.91c3.52-3.6,7.83-4.47,12.25-2.5a10.6,10.6,0,1,1-8.75,19.32c-3.6-1.61-5.38-4-6.13-8.16l-18.93-8.43c-3.53,13.12,3.78,27,17.41,33.09,16.49,7.34,33.74,1.4,40.58-14,6.2-13.92.53-29.54-12.86-35.51a26.88,26.88,0,0,0-10.85-2.28l5.05-7.72,26.31,11.72,7.21-16.19"/><path class="cls-22" d="M541.21,192l-40.34-18-24.67,37.7,13.72,10.91c3.52-3.6,7.83-4.47,12.25-2.5a10.6,10.6,0,1,1-8.75,19.32c-3.6-1.6-5.38-4-6.13-8.16l-18.93-8.43c-3.52,13.12,3.79,27,17.42,33.09,16.48,7.35,33.73,1.4,40.57-14,6.2-13.92.53-29.55-12.86-35.52a27.22,27.22,0,0,0-10.85-2.28l5.05-7.71L534,208.2l7.21-16.2"/><path class="cls-23" d="M541.08,191.83l-40.34-18-24.67,37.69,13.72,10.91c3.52-3.6,7.84-4.47,12.26-2.5a10.52,10.52,0,0,1,5.4,14,10.41,10.41,0,0,1-14.15,5.34c-3.61-1.61-5.39-4-6.14-8.17l-18.92-8.43c-3.53,13.13,3.78,27,17.41,33.1,16.48,7.34,33.74,1.4,40.58-14,6.19-13.92.52-29.55-12.87-35.51A26.83,26.83,0,0,0,502.52,204l5-7.72L533.87,208l7.21-16.19"/><path class="cls-24" d="M541,191.65l-40.34-18L476,211.38l13.72,10.91c3.52-3.6,7.83-4.47,12.25-2.5a10.51,10.51,0,0,1,5.4,14,10.4,10.4,0,0,1-14.15,5.34c-3.6-1.6-5.39-4-6.14-8.16l-18.92-8.43c-3.53,13.12,3.78,27,17.41,33.09,16.49,7.34,33.74,1.4,40.58-14,6.19-13.93.53-29.55-12.87-35.52a26.79,26.79,0,0,0-10.84-2.28l5.05-7.72,26.31,11.73,7.2-16.2"/><path class="cls-25" d="M540.83,191.47l-40.35-18-24.66,37.7,13.72,10.91c3.52-3.6,7.83-4.47,12.25-2.5a10.51,10.51,0,0,1,5.4,14A10.4,10.4,0,0,1,493,238.93c-3.6-1.6-5.39-4-6.13-8.16L468,222.34c-3.53,13.12,3.79,27,17.41,33.09,16.49,7.35,33.74,1.41,40.58-14,6.2-13.92.53-29.55-12.86-35.52a27.22,27.22,0,0,0-10.85-2.28l5.05-7.71,26.31,11.72,7.21-16.2"/><path class="cls-26" d="M540.7,191.3l-40.34-18L475.69,211l13.72,10.91c3.52-3.6,7.83-4.47,12.25-2.5a10.6,10.6,0,1,1-8.75,19.32c-3.6-1.61-5.38-4-6.13-8.16l-18.92-8.43c-3.53,13.12,3.78,27,17.41,33.09,16.48,7.34,33.73,1.4,40.57-14,6.2-13.92.53-29.54-12.86-35.51a26.84,26.84,0,0,0-10.85-2.28l5.05-7.72,26.31,11.72,7.21-16.19"/><path class="cls-27" d="M540.57,191.12l-40.34-18-24.67,37.7,13.72,10.91c3.52-3.6,7.83-4.47,12.26-2.5a10.51,10.51,0,0,1,5.4,14,10.4,10.4,0,0,1-14.15,5.34c-3.61-1.6-5.39-4-6.14-8.16L467.73,222c-3.53,13.12,3.78,27,17.41,33.09,16.48,7.35,33.74,1.4,40.58-14,6.19-13.92.52-29.55-12.87-35.52A27,27,0,0,0,502,203.31l5-7.71,26.31,11.72,7.21-16.2"/><path class="cls-28" d="M540.44,191,500.1,173l-24.67,37.69,13.73,10.91c3.52-3.6,7.83-4.47,12.25-2.5a10.52,10.52,0,0,1,5.4,14,10.41,10.41,0,0,1-14.15,5.34c-3.6-1.61-5.39-4-6.14-8.17l-18.92-8.43c-3.53,13.13,3.78,27,17.41,33.09,16.49,7.35,33.74,1.41,40.58-14,6.19-13.92.53-29.55-12.87-35.51a26.83,26.83,0,0,0-10.84-2.28l5.05-7.72,26.3,11.72L540.44,191"/><path class="cls-29" d="M540.32,190.77,500,172.8l-24.67,37.7L489,221.41c3.52-3.6,7.83-4.47,12.25-2.5a10.6,10.6,0,1,1-8.75,19.32c-3.6-1.61-5.38-4-6.13-8.16l-18.93-8.43c-3.53,13.12,3.79,27,17.41,33.09,16.49,7.34,33.74,1.4,40.58-14,6.2-13.93.53-29.55-12.86-35.52A26.88,26.88,0,0,0,501.75,203l5.05-7.72L533.11,207l7.21-16.19"/><path class="cls-30" d="M540.19,190.59l-40.34-18-24.67,37.7,13.72,10.91c3.52-3.6,7.83-4.47,12.25-2.5a10.5,10.5,0,0,1,5.4,14,10.39,10.39,0,0,1-14.15,5.34c-3.6-1.6-5.38-4-6.13-8.16l-18.93-8.43c-3.52,13.12,3.79,27,17.42,33.09,16.48,7.35,33.73,1.4,40.57-14,6.2-13.92.53-29.55-12.86-35.52a27.18,27.18,0,0,0-10.85-2.28l5.05-7.71L533,206.79l7.21-16.2"/><path class="cls-31" d="M540.06,190.42l-40.34-18-24.67,37.7,13.72,10.9c3.52-3.59,7.83-4.47,12.26-2.5a10.61,10.61,0,1,1-8.76,19.33c-3.6-1.61-5.38-4-6.13-8.17l-18.92-8.42c-3.53,13.12,3.78,27,17.41,33.09,16.48,7.34,33.73,1.4,40.58-14,6.19-13.92.52-29.55-12.87-35.51a26.84,26.84,0,0,0-10.85-2.28l5.05-7.72,26.31,11.72,7.21-16.19"/><path class="cls-32" d="M539.93,190.24l-40.34-18L474.92,210l13.72,10.91c3.53-3.6,7.84-4.47,12.26-2.5a10.51,10.51,0,0,1,5.4,14,10.4,10.4,0,0,1-14.15,5.34c-3.6-1.6-5.39-4-6.14-8.16l-18.92-8.43c-3.53,13.12,3.78,27,17.41,33.09,16.48,7.34,33.74,1.4,40.58-14,6.19-13.92.52-29.55-12.87-35.52a26.83,26.83,0,0,0-10.84-2.28l5.05-7.72,26.31,11.72,7.2-16.19"/><path class="cls-33" d="M539.8,190.07l-40.33-18-24.67,37.7,13.72,10.91c3.52-3.6,7.83-4.47,12.25-2.5a10.52,10.52,0,0,1,5.4,14A10.41,10.41,0,0,1,492,237.53c-3.6-1.61-5.38-4-6.14-8.17L467,220.93c-3.53,13.13,3.78,27,17.41,33.09,16.49,7.35,33.74,1.41,40.58-14,6.2-13.92.53-29.55-12.86-35.51a27,27,0,0,0-10.85-2.29l5.05-7.71,26.31,11.72,7.2-16.19"/><path class="cls-34" d="M539.68,189.89l-40.34-18-24.67,37.7,13.72,10.91c3.52-3.6,7.83-4.47,12.25-2.5a10.6,10.6,0,1,1-8.75,19.32c-3.6-1.61-5.38-4-6.13-8.16l-18.93-8.43c-3.53,13.12,3.79,27,17.41,33.09,16.49,7.34,33.74,1.4,40.58-14,6.2-13.92.53-29.55-12.86-35.51a26.84,26.84,0,0,0-10.85-2.28l5.05-7.72,26.31,11.72,7.21-16.19"/><path class="cls-35" d="M539.55,189.71l-40.34-18-24.67,37.7,13.72,10.91c3.52-3.6,7.83-4.47,12.26-2.5a10.5,10.5,0,0,1,5.39,14,10.38,10.38,0,0,1-14.14,5.34c-3.61-1.6-5.39-4-6.14-8.16l-18.92-8.43c-3.53,13.12,3.78,27,17.41,33.09,16.48,7.35,33.73,1.4,40.58-14,6.19-13.92.52-29.55-12.87-35.52A27.18,27.18,0,0,0,501,201.9l5-7.71,26.31,11.72,7.21-16.2"/><path class="cls-36" d="M539.42,189.54l-40.34-18-24.67,37.69,13.72,10.91c3.53-3.6,7.84-4.47,12.26-2.5a10.52,10.52,0,0,1,5.4,14A10.41,10.41,0,0,1,491.64,237c-3.61-1.61-5.39-4-6.14-8.17l-18.92-8.43c-3.53,13.13,3.78,27,17.41,33.1,16.48,7.34,33.74,1.4,40.58-14,6.19-13.92.53-29.55-12.87-35.51a26.83,26.83,0,0,0-10.84-2.28l5-7.72,26.31,11.72,7.21-16.19"/><path class="cls-37" d="M539.29,189.36l-40.34-18-24.66,37.7L488,220c3.52-3.6,7.83-4.47,12.25-2.5a10.51,10.51,0,0,1,5.4,14,10.4,10.4,0,0,1-14.15,5.34c-3.6-1.61-5.39-4-6.14-8.16l-18.92-8.43c-3.53,13.12,3.78,27,17.41,33.09,16.49,7.34,33.74,1.4,40.58-14,6.2-13.92.53-29.55-12.86-35.52a26.88,26.88,0,0,0-10.85-2.28l5-7.72,26.31,11.72,7.2-16.19"/><path class="cls-38" d="M539.17,189.18l-40.34-18-24.67,37.7,13.72,10.91c3.52-3.6,7.83-4.47,12.25-2.5a10.5,10.5,0,0,1,5.4,14,10.39,10.39,0,0,1-14.15,5.34c-3.6-1.6-5.38-4-6.13-8.16l-18.93-8.43c-3.53,13.13,3.79,27,17.42,33.09,16.48,7.35,33.73,1.41,40.58-14,6.19-13.92.52-29.55-12.87-35.52a27.18,27.18,0,0,0-10.85-2.28l5-7.71L532,205.38l7.21-16.2"/><path class="cls-10" d="M437.47,160.19H424.4V267.45h13.07Zm0-29.36H424.4v21h13.07Zm-111.41,83.1a72.35,72.35,0,0,1,1.87-16.39,48.43,48.43,0,0,1,6.23-14.73,34.17,34.17,0,0,1,11-10.38,29.61,29.61,0,0,1,16-4.15q10.37,0,17.42,4.15a32.45,32.45,0,0,1,11.62,10.38,40.37,40.37,0,0,1,6.43,14.73,65.41,65.41,0,0,1,2.08,16.39,67.82,67.82,0,0,1-2.08,16.59,40.55,40.55,0,0,1-6.43,14.53,34.42,34.42,0,0,1-11.62,10.58q-7.05,3.93-17.42,3.94a30.84,30.84,0,0,1-16-3.94,36.5,36.5,0,0,1-11-10.58,48.88,48.88,0,0,1-6.23-14.53A75,75,0,0,1,326.06,213.93Zm85.69,53.52V130.83H398.68v49.9a40,40,0,0,0-6.43-10.16,33.9,33.9,0,0,0-8.72-7.27,37.38,37.38,0,0,0-10.79-4.56,45.94,45.94,0,0,0-11.61-1.45q-12.25,0-21.38,4.56a43.6,43.6,0,0,0-14.93,12.45,51.24,51.24,0,0,0-8.93,18,78.46,78.46,0,0,0-2.9,21.58,80.65,80.65,0,0,0,2.9,21.78,53.63,53.63,0,0,0,8.93,18A44.4,44.4,0,0,0,339.75,266a49.22,49.22,0,0,0,21.38,4.36,42.31,42.31,0,0,0,11.61-1.66A50.22,50.22,0,0,0,384,264.13a40.11,40.11,0,0,0,9.13-7.46,30,30,0,0,0,6.22-9.55l.42,20.33Zm-106.43,0v-107H292.25v56.22a69.38,69.38,0,0,1-1.87,16,43.56,43.56,0,0,1-5.81,13.69,32,32,0,0,1-10,9.75,28.24,28.24,0,0,1-14.52,3.53q-15.57,0-22-7.47-6.24-7.47-6.64-22V160.4H218.38v69.5a63.74,63.74,0,0,0,2.08,17,33.23,33.23,0,0,0,6.43,12.66,28.92,28.92,0,0,0,11.62,7.88,46.82,46.82,0,0,0,17.43,2.91,43,43,0,0,0,21.78-5.6,37.61,37.61,0,0,0,15.15-16.6l.42,19.29Zm-118.08-107V130.83H174.17V160.4H155.5v11h18.67v73.24q-.21,13.69,5,18.88,5.19,5,18.26,5,2.9,0,5.81-.21t5.81-.21v-11a100.4,100.4,0,0,1-11.21.62q-7-.4-8.92-3.94a25.47,25.47,0,0,1-1.66-10.17v-72.2H209v-11Zm-47.12,31.33h13.07a38.74,38.74,0,0,0-3.53-15.15,31.09,31.09,0,0,0-8.5-10.79,33.61,33.61,0,0,0-12.25-6.43A51.36,51.36,0,0,0,114,157.29,63.88,63.88,0,0,0,99.66,159a43.88,43.88,0,0,0-12.86,5.19,29.22,29.22,0,0,0-9.54,9.33,26.2,26.2,0,0,0-3.53,13.9A26.81,26.81,0,0,0,76,199a24.64,24.64,0,0,0,6.22,7.88,45.34,45.34,0,0,0,9.55,5.4A110,110,0,0,0,103.6,216l16.81,3.74a84.94,84.94,0,0,1,8.5,2.49,30.13,30.13,0,0,1,7.68,3.73,15,15,0,0,1,5.19,5.39,14,14,0,0,1,2.07,7.89,15.62,15.62,0,0,1-2.9,9.54,21.88,21.88,0,0,1-7.06,6.22,31.18,31.18,0,0,1-9.54,3.53,47.86,47.86,0,0,1-9.75,1q-13.06,0-22-6.64-8.72-6.84-9.55-20.12H70q1.67,19.71,13.28,28.63,11.83,8.93,30.71,8.92a71.91,71.91,0,0,0,15.14-1.66,43,43,0,0,0,13.69-5.4,33.09,33.09,0,0,0,10.17-10,27.38,27.38,0,0,0,4-14.94,26.15,26.15,0,0,0-2.7-12.24,27.17,27.17,0,0,0-7.06-8.72,32.14,32.14,0,0,0-9.75-5.6,45.06,45.06,0,0,0-11-3.11L109,204.8c-2.21-.55-4.64-1.25-7.26-2.08a39.8,39.8,0,0,1-7.27-3.52,21.87,21.87,0,0,1-5.6-5,13.2,13.2,0,0,1-2.07-7.47A15.76,15.76,0,0,1,89.08,178a16.78,16.78,0,0,1,6-5.6,23.91,23.91,0,0,1,8.09-3.11,40.22,40.22,0,0,1,8.92-1,37.52,37.52,0,0,1,10.58,1.46,23.19,23.19,0,0,1,8.72,4.15,20.5,20.5,0,0,1,6.22,7.46A24,24,0,0,1,140.12,191.73Z"/><path class="cls-10" d="M74.94,452.08v-6.72h3.84a9.73,9.73,0,0,1,1.64.13,3.61,3.61,0,0,1,1.38.5,2.44,2.44,0,0,1,1,1,3.43,3.43,0,0,1,.37,1.72,3.5,3.5,0,0,1-.37,1.73,2.63,2.63,0,0,1-1,1,4,4,0,0,1-1.38.47,9.73,9.73,0,0,1-1.64.13H74.94m-5-10.55v22.41h5v-8h5.19a9.52,9.52,0,0,0,3.59-.6,6.74,6.74,0,0,0,2.4-1.63,5.87,5.87,0,0,0,1.35-2.29,8.49,8.49,0,0,0,.44-2.67,8.3,8.3,0,0,0-.44-2.67,5.94,5.94,0,0,0-1.35-2.29,6.44,6.44,0,0,0-2.4-1.6,9.12,9.12,0,0,0-3.59-.63Zm54.41,13.94V441.53h-4.94v13.94a5.6,5.6,0,0,1-1,3.7c-.67.78-1.89,1.16-3.65,1.16a6,6,0,0,1-2.42-.4,4,4,0,0,1-1.39-1.1,3.66,3.66,0,0,1-.66-1.57,9.69,9.69,0,0,1-.16-1.79V441.53h-4.94v13.94q0,4.57,2.49,6.78c1.67,1.46,4,2.19,7.08,2.19a10.48,10.48,0,0,0,7-2.19Q124.4,460,124.4,455.47Zm23.53-4.87v-5.24h4.62a5.6,5.6,0,0,1,1.26.13,3,3,0,0,1,1.11.38,2.08,2.08,0,0,1,.75.78,2.57,2.57,0,0,1,.29,1.29,2.39,2.39,0,0,1-.85,2,3.58,3.58,0,0,1-2.18.62Zm-5-9.07v22.41h10.9a11.48,11.48,0,0,0,2.93-.37,7.64,7.64,0,0,0,2.55-1.17,5.74,5.74,0,0,0,1.79-2,6.26,6.26,0,0,0,.66-2.95,6,6,0,0,0-1-3.58,5.24,5.24,0,0,0-3.08-2.1,5.51,5.51,0,0,0,2.26-1.86,4.77,4.77,0,0,0,.79-2.82,5.94,5.94,0,0,0-.53-2.64,4.12,4.12,0,0,0-1.45-1.69,6.21,6.21,0,0,0-2.27-.94,13.92,13.92,0,0,0-2.93-.29Zm5,18.58V454h5.38a4.06,4.06,0,0,1,2.58.76,2.83,2.83,0,0,1,1,2.44,3,3,0,0,1-.32,1.45,2.46,2.46,0,0,1-.78.91,4.09,4.09,0,0,1-1.17.47,7.7,7.7,0,0,1-1.38.12Zm36.49-9.51v-5.24h4.63a5.73,5.73,0,0,1,1.26.13,2.87,2.87,0,0,1,1.1.38,2.11,2.11,0,0,1,.76.78,2.68,2.68,0,0,1,.28,1.29,2.36,2.36,0,0,1-.85,2,3.55,3.55,0,0,1-2.17.62Zm-4.94-9.07v22.41h10.89a11.42,11.42,0,0,0,2.93-.37,7.46,7.46,0,0,0,2.55-1.17,5.64,5.64,0,0,0,1.79-2,6.15,6.15,0,0,0,.67-2.95,6.06,6.06,0,0,0-1-3.58,5.23,5.23,0,0,0-3.09-2.1,5.54,5.54,0,0,0,2.27-1.86,4.84,4.84,0,0,0,.79-2.82,5.8,5.8,0,0,0-.54-2.64,4.12,4.12,0,0,0-1.45-1.69,6.14,6.14,0,0,0-2.27-.94,13.82,13.82,0,0,0-2.92-.29Zm4.94,18.58V454h5.38a4.07,4.07,0,0,1,2.59.76,2.83,2.83,0,0,1,1,2.44,3,3,0,0,1-.31,1.45,2.4,2.4,0,0,1-.79.91,4,4,0,0,1-1.16.47,7.9,7.9,0,0,1-1.39.12ZM216,441.53v22.41h15.9V459.8h-11V441.53Zm37.94,0H249v22.41h4.94Zm33.66,7.54h4.79a9.24,9.24,0,0,0-1.07-3.46,8.23,8.23,0,0,0-2.17-2.51,9.34,9.34,0,0,0-3-1.57,12.14,12.14,0,0,0-8.16.38,9.86,9.86,0,0,0-3.46,2.51,11.17,11.17,0,0,0-2.18,3.77,14.57,14.57,0,0,0,0,9.23,11,11,0,0,0,2.18,3.67,10.18,10.18,0,0,0,3.46,2.48,12,12,0,0,0,4.66.87,11,11,0,0,0,3.81-.62,9,9,0,0,0,3-1.82,9.1,9.1,0,0,0,2.08-2.89,11.36,11.36,0,0,0,1-3.8h-4.79a6.31,6.31,0,0,1-1.57,3.64,4.54,4.54,0,0,1-3.53,1.38,6,6,0,0,1-2.83-.62,5.52,5.52,0,0,1-1.89-1.73,7.55,7.55,0,0,1-1.07-2.38,12.26,12.26,0,0,1-.32-2.77,12.77,12.77,0,0,1,.32-2.85,7.45,7.45,0,0,1,1.07-2.45,5.16,5.16,0,0,1,1.89-1.73,5.64,5.64,0,0,1,2.83-.66,4.75,4.75,0,0,1,1.73.32,4.87,4.87,0,0,1,1.51.81,5.13,5.13,0,0,1,1.11,1.26A3.85,3.85,0,0,1,287.57,449.07Zm27.62-7.54h-4.95v22.41h4.95Zm23.64,4.15v18.26h4.95V445.68h6.74v-4.15H332.09v4.15Zm31.62-10.61,4.85,4.46h3.11l-3-4.46Zm2.64,20.21,2.93-8.22,2.9,8.22Zm.47-13.75-8.5,22.41h5l1.76-5h8.41l1.7,5H387l-8.41-22.41Zm52.68,0v22.41h17.07V459.8H431.18v-5.49h10.9v-3.83h-10.9v-4.8h11.87v-4.15Zm38.1,15h-4.79a7.31,7.31,0,0,0,.76,3.58,7.06,7.06,0,0,0,2.11,2.48A8.94,8.94,0,0,0,465.5,464a13.8,13.8,0,0,0,3.63.47,13.62,13.62,0,0,0,4-.53,8.52,8.52,0,0,0,2.92-1.47,6.36,6.36,0,0,0,1.8-2.29,6.85,6.85,0,0,0,.6-2.86,5.31,5.31,0,0,0-.82-3.08,6.61,6.61,0,0,0-1.89-1.94,8.07,8.07,0,0,0-2.24-1c-.73-.23-1.31-.38-1.73-.47l-3.43-.88a13.8,13.8,0,0,1-2.05-.69,2.21,2.21,0,0,1-1-.75,2,2,0,0,1-.26-1.07,2.09,2.09,0,0,1,.32-1.19,2.83,2.83,0,0,1,.79-.79,3.2,3.2,0,0,1,1.1-.43,5.44,5.44,0,0,1,1.2-.13,7.79,7.79,0,0,1,1.66.16,4,4,0,0,1,1.39.53,2.73,2.73,0,0,1,.95,1,3.92,3.92,0,0,1,.44,1.66h4.78a6.71,6.71,0,0,0-.75-3.3,6.38,6.38,0,0,0-2-2.26,8.29,8.29,0,0,0-2.89-1.25,13.82,13.82,0,0,0-3.37-.41,11.7,11.7,0,0,0-3,.41,8.46,8.46,0,0,0-2.7,1.25,6.93,6.93,0,0,0-2,2.14,5.9,5.9,0,0,0-.72,3,5.68,5.68,0,0,0,.57,2.64,5.77,5.77,0,0,0,1.54,1.79,9,9,0,0,0,2.14,1.19,25,25,0,0,0,2.46.75c.81.23,1.62.44,2.42.63a15.54,15.54,0,0,1,2.14.66,4.38,4.38,0,0,1,1.51.94,1.94,1.94,0,0,1,.6,1.47,2.27,2.27,0,0,1-.44,1.42,3.19,3.19,0,0,1-1.1.84,5.11,5.11,0,0,1-1.42.44,10.19,10.19,0,0,1-1.42.1,8.43,8.43,0,0,1-1.89-.22,5.57,5.57,0,0,1-1.6-.72,3.86,3.86,0,0,1-1.07-1.29A4.13,4.13,0,0,1,464.34,456.5Zm36.37-10.82v18.26h4.94V445.68h6.74v-4.15H494v4.15Zm28.59-4.15v22.41h17.06V459.8H534.24v-5.49h10.9v-3.83h-10.9v-4.8h11.87v-4.15ZM569,451.67v-6.31h5.42a3.72,3.72,0,0,1,2.55.76,2.94,2.94,0,0,1,.85,2.35,3.15,3.15,0,0,1-.85,2.45,3.77,3.77,0,0,1-2.55.75ZM564,441.53v22.41H569v-8.75h4.94a3.72,3.72,0,0,1,2.68.81,4.44,4.44,0,0,1,1.07,2.58c.13.9.22,1.84.29,2.82a8.66,8.66,0,0,0,.5,2.54h4.94a3.38,3.38,0,0,1-.53-1.13,12.7,12.7,0,0,1-.25-1.44c-.05-.5-.08-1-.1-1.48l-.06-1.25a12.45,12.45,0,0,0-.25-1.7,5.34,5.34,0,0,0-.54-1.53,4.07,4.07,0,0,0-1-1.23,3.73,3.73,0,0,0-1.51-.78,5.58,5.58,0,0,0,2.71-2.26,6.58,6.58,0,0,0,.85-3.42,6.07,6.07,0,0,0-.47-2.39,5.6,5.6,0,0,0-1.32-2,5.9,5.9,0,0,0-2.08-1.31,6.86,6.86,0,0,0-2.71-.51Zm37.06,0v22.41h4.63v-15l9.41,15h5V441.53h-4.63v15l-9.45-15Zm43.32,13.75,2.93-8.22,2.9,8.22Zm.48-13.75-8.5,22.41h5l1.76-5h8.41l1.7,5h5.13L650,441.53Z"/></svg>